<svg xmlns="http://www.w3.org/2000/svg" viewBox="0 0 128 128" width="128" height="128">
  <defs>
    <!-- Monochrome metallic gradient -->
    <linearGradient id="monoMetal" x1="0%" y1="0%" x2="0%" y2="100%">
      <stop offset="0%" style="stop-color:#666666"/>
      <stop offset="50%" style="stop-color:#444444"/>
      <stop offset="100%" style="stop-color:#222222"/>
    </linearGradient>
  </defs>
  
  <!-- Transparent background -->
  
  <!-- Icon Group - Centered -->
  <g>
    <!-- Outer gear ring -->
    <circle cx="64" cy="64" r="56" fill="none" stroke="#000000" stroke-width="6"/>
    <!-- Gear teeth -->
    <g fill="#000000">
      <rect x="56" y="0" width="16" height="16" rx="2"/>
      <rect x="56" y="112" width="16" height="16" rx="2"/>
      <rect x="0" y="56" width="16" height="16" rx="2"/>
      <rect x="112" y="56" width="16" height="16" rx="2"/>
      <rect x="16" y="16" width="14" height="14" rx="2" transform="rotate(45 23 23)"/>
      <rect x="98" y="16" width="14" height="14" rx="2" transform="rotate(45 105 23)"/>
      <rect x="16" y="98" width="14" height="14" rx="2" transform="rotate(45 23 105)"/>
      <rect x="98" y="98" width="14" height="14" rx="2" transform="rotate(45 105 105)"/>
    </g>
    
    <!-- Inner circle -->
    <circle cx="64" cy="64" r="36" fill="none" stroke="#000000" stroke-width="4"/>
    
    <!-- Stylized E -->
    <path d="M44 40 L80 40 L80 48 L54 48 L54 56 L76 56 L76 64 L54 64 L54 80 L84 80 L84 88 L44 88 Z" fill="#000000"/>
  </g>
</svg>